<?xml version="1.0" encoding="UTF-8"?>
<svg id="Color_prinicpal" xmlns="http://www.w3.org/2000/svg"
  xmlns:xlink="http://www.w3.org/1999/xlink" viewBox="0 0 1573 1122">
  <defs>
    <style>
      .cls-1{fill:url(#Degradado_sin_nombre_6);}.cls-2{fill:#a5a5a5;}.cls-3{fill:#191919;}.cls-4{fill:url(#Degradado_sin_nombre_66);}</style>
    <linearGradient id="Degradado_sin_nombre_66" x1="820.52" y1="894.74" x2="338.3" y2="460.06"
      gradientUnits="userSpaceOnUse">
      <stop offset="0" stop-color="#9fdb23" />
      <stop offset=".99" stop-color="#24dbd7" />
    </linearGradient>
    <linearGradient id="Degradado_sin_nombre_6" x1="279.06" y1="463.26" x2="880.61" y2="463.26"
      gradientUnits="userSpaceOnUse">
      <stop offset="0" stop-color="#9fdb23" />
      <stop offset="1" stop-color="#24dbd7" />
    </linearGradient>
  </defs>
  <path class="cls-4"
    d="m556.83,732.6c-56.84,10.37-115.75.4-165.73-28.16-21.94-12.55-41.46-28.1-58.22-46.13-26.55-28.62-46.01-63.4-56.61-102.16-2.94-10.71-5.07-21.54-6.51-32.36-7.2-53.04,3.11-106.65,30-153.81,13.13-22.92,29.83-43.53,49.7-61.27,18.31-16.41,38.87-29.83,61.21-40.02l-26.32-61.56c-28.97,13.07-55.69,30.46-79.47,51.65-25.11,22.4-46.36,48.72-63.11,78.14-41.35,72.39-52.06,156.46-30.12,236.79,21.94,80.33,73.88,147.36,146.38,188.77,63.75,36.39,138.61,49.24,210.65,36.05,19.29-3.57,38.35-8.93,56.61-16.01,1.25-1.38,2.37-2.83,3.59-4.23v-71.16c-22.48,12.09-46.78,20.84-72.06,25.47Z" />
  <path class="cls-1"
    d="m876.8,539.21c-6.88-33.09-18.99-64.64-36-93.78-41.96-71.87-109.49-123.13-190.14-144.33-80.58-21.16-164.56-9.72-236.45,32.24-62.38,36.42-110.1,93.41-135.15,160.95.28,19.63,3.01,39.37,8.32,58.82,8.34,30.55,22.47,58.5,41.41,82.68-5.19-37.73-1.59-76.11,11.11-112.94,19.09-55.42,57.48-102.21,108.07-131.74,56.55-33.02,122.55-42.04,185.83-25.41,63.21,16.61,116.21,56.91,149.25,113.5,13.37,22.9,22.88,47.64,28.26,73.53.63,3,1.19,6.01,1.71,9.03h67.61c-1-7.55-2.26-15.07-3.81-22.54Z" />
  <g>
    <path class="cls-3"
      d="m698.68,630.16l3.87,152.3h-51.41v-201.23h82.65l37.32,145.67,37.32-145.67h83.75v201.23h-51.69l4.15-152.58-45.61,152.58h-56.94l-43.39-152.3Z" />
    <path class="cls-3"
      d="m977.85,581.23h63.02l68.27,201.23h-55.56l-8.57-29.3h-71.32l-8.29,29.3h-55.83l68.27-201.23Zm54.73,128.53l-23.5-81.54-22.94,81.54h46.44Z" />
    <path class="cls-3"
      d="m1150.47,776.38c-12.99-6.82-22.71-17.87-29.16-33.17-6.45-15.29-9.68-35.65-9.68-61.08s3.22-46.11,9.68-61.5c6.45-15.39,16.17-26.49,29.16-33.31,12.99-6.82,29.81-10.23,50.44-10.23s37.22,3.41,50.31,10.23c13.08,6.82,22.85,17.92,29.3,33.31,6.45,15.39,9.67,35.89,9.67,61.5,0,20.64-2.12,37.87-6.36,51.69-4.24,13.82-10.69,24.88-19.35,33.17l25.71,24.88-33.17,27.92-32.34-34.83c-7.37,1.11-15.3,1.66-23.77,1.66-20.64,0-37.45-3.41-50.44-10.22Zm18.38-58.46c2.58,8.57,6.45,14.6,11.61,18.1,5.16,3.5,11.98,5.25,20.45,5.25s15.25-1.75,20.32-5.25c5.07-3.5,8.85-9.53,11.33-18.1,2.49-8.57,3.73-20.5,3.73-35.79s-1.24-27.27-3.73-35.93c-2.49-8.66-6.32-14.74-11.47-18.24-5.16-3.5-11.89-5.25-20.18-5.25s-15.3,1.75-20.45,5.25c-5.16,3.5-9.03,9.54-11.61,18.1-2.58,8.57-3.87,20.59-3.87,36.08s1.28,27.22,3.87,35.79Z" />
    <path class="cls-3" d="m1317.01,581.23h52.52v201.23h-52.52v-201.23Z" />
  </g>
  <g>
    <path class="cls-2"
      d="m729.13,903.69l-.1-50.42-25.01,42.01h-4.55l-25.01-41.72v50.12h-9.49v-69.2h8.1l28.87,48.64,28.47-48.64h8.11l.1,69.2h-9.49Z" />
    <path class="cls-2"
      d="m754.61,869.09c0-20.27,15.62-35.39,36.87-35.39s36.68,15.03,36.68,35.39-15.62,35.39-36.68,35.39-36.87-15.13-36.87-35.39Zm63.66,0c0-15.32-11.47-26.59-26.79-26.59s-26.98,11.27-26.98,26.59,11.47,26.59,26.98,26.59,26.79-11.27,26.79-26.59Z" />
    <path class="cls-2" d="m854.04,843.1v24.12h34.69v8.5h-34.69v27.98h-9.89v-69.2h48.83v8.6h-38.94Z" />
    <path class="cls-2"
      d="m932.21,835.09c0-3.46,2.77-6.23,6.42-6.23s6.43,2.67,6.43,6.03c0,3.55-2.67,6.33-6.43,6.33s-6.42-2.67-6.42-6.13Zm1.68,16.21h9.49v52.39h-9.49v-52.39Z" />
    <path class="cls-2"
      d="m1012.07,873.54v30.15h-9.49v-29.06c0-10.28-5.14-15.32-14.14-15.32-10.08,0-16.61,6.03-16.61,17.4v26.99h-9.49v-52.39h9.09v7.91c3.85-5.34,10.58-8.4,18.88-8.4,12.75,0,21.75,7.31,21.75,22.74Z" />
    <path class="cls-2"
      d="m1053.77,869.09c0-20.27,15.62-35.39,36.87-35.39s36.68,15.03,36.68,35.39-15.62,35.39-36.68,35.39-36.87-15.13-36.87-35.39Zm63.66,0c0-15.32-11.47-26.59-26.79-26.59s-26.98,11.27-26.98,26.59,11.47,26.59,26.98,26.59,26.79-11.27,26.79-26.59Z" />
    <path class="cls-2"
      d="m1196.2,877.5c0,16.11-11.17,26.79-26.49,26.79-7.41,0-13.94-2.86-18.29-8.5v27.08h-9.49v-71.57h9.09v8.3c4.25-5.83,10.97-8.8,18.68-8.8,15.32,0,26.49,10.67,26.49,26.69Zm-9.59,0c0-11.07-7.61-18.39-17.7-18.39s-17.59,7.32-17.59,18.39,7.61,18.48,17.59,18.48,17.7-7.32,17.7-18.48Z" />
    <path class="cls-2"
      d="m1239.68,900.63c-2.87,2.47-7.22,3.66-11.47,3.66-10.58,0-16.61-5.83-16.61-16.4v-28.77h-8.9v-7.81h8.9v-11.47h9.49v11.47h15.03v7.81h-15.03v28.37c0,5.63,2.97,8.8,8.2,8.8,2.77,0,5.44-.89,7.42-2.47l2.96,6.82Z" />
    <path class="cls-2"
      d="m1250.35,835.09c0-3.46,2.77-6.23,6.42-6.23s6.43,2.67,6.43,6.03c0,3.55-2.67,6.33-6.43,6.33s-6.42-2.67-6.42-6.13Zm1.68,16.21h9.49v52.39h-9.49v-52.39Z" />
    <path class="cls-2"
      d="m1275.65,877.5c0-15.62,11.57-26.69,27.68-26.69,9.39,0,17.2,3.85,21.35,11.17l-7.22,4.65c-3.36-5.14-8.5-7.51-14.23-7.51-10.29,0-18,7.22-18,18.39s7.71,18.48,18,18.48c5.73,0,10.87-2.37,14.23-7.51l7.22,4.55c-4.15,7.31-11.96,11.26-21.35,11.26-16.11,0-27.68-11.17-27.68-26.79Z" />
    <path class="cls-2"
      d="m1331.19,898.16l3.95-7.51c4.45,3.16,11.57,5.43,18.39,5.43,8.8,0,12.45-2.67,12.45-7.11,0-11.76-33.11-1.58-33.11-22.44,0-9.39,8.4-15.72,21.84-15.72,6.82,0,14.53,1.78,19.08,4.74l-4.05,7.51c-4.74-3.06-9.98-4.15-15.12-4.15-8.31,0-12.36,3.06-12.36,7.22,0,12.36,33.21,2.28,33.21,22.64,0,9.49-8.7,15.52-22.64,15.52-8.69,0-17.3-2.67-21.65-6.12Z" />
  </g>
</svg>